<svg width="32" height="32" viewBox="0 0 32 32" fill="none" xmlns="http://www.w3.org/2000/svg">
<path d="M26.6666 16V24C26.6666 25.8856 26.6666 26.8284 26.0808 27.4142C25.495 28 24.5522 28 22.6666 28H8.66659C8.35704 28 8.20227 28 8.07178 27.9886C6.62144 27.8617 5.47156 26.7118 5.34467 25.2615C5.33325 25.131 5.33325 24.9762 5.33325 24.6667V24.6667C5.33325 24.3571 5.33325 24.2024 5.34467 24.0719C5.47156 22.6215 6.62144 21.4716 8.07178 21.3447C8.20227 21.3333 8.35704 21.3333 8.66659 21.3333H22.6666C24.5522 21.3333 25.495 21.3333 26.0808 20.7475C26.6666 20.1618 26.6666 19.219 26.6666 17.3333V8C26.6666 6.11438 26.6666 5.17157 26.0808 4.58579C25.495 4 24.5522 4 22.6666 4H9.33326C7.44764 4 6.50482 4 5.91904 4.58579C5.33325 5.17157 5.33325 6.11438 5.33325 8V24.6667" stroke="#007675" stroke-width="2"/>
<path d="M12 10.6666L20 10.6666" stroke="#007675" stroke-width="2" stroke-linecap="round"/>
</svg>
