<svg width="28" height="28" viewBox="0 0 28 28" fill="none" xmlns="http://www.w3.org/2000/svg">
<path fill-rule="evenodd" clip-rule="evenodd" d="M7.77384 0.667206H20.2258C24.7605 0.667206 27.3205 3.23921 27.3338 7.77387V20.2272C27.3338 24.7605 24.7605 27.3339 20.2258 27.3339H7.77384C3.23918 27.3339 0.667175 24.7605 0.667175 20.2272V7.77387C0.667175 3.23921 3.23918 0.667206 7.77384 0.667206ZM14.0658 21.8139C14.6405 21.8139 15.1192 21.3872 15.1725 20.8139V7.22721C15.2258 6.81387 15.0272 6.39921 14.6672 6.17387C14.2925 5.94721 13.8392 5.94721 13.4805 6.17387C13.1192 6.39921 12.9205 6.81387 12.9592 7.22721V20.8139C13.0272 21.3872 13.5058 21.8139 14.0658 21.8139ZM20.2005 21.8139C20.7605 21.8139 21.2392 21.3872 21.3072 20.8139V16.4405C21.3458 16.0125 21.1472 15.6139 20.7858 15.3872C20.4272 15.1605 19.9738 15.1605 19.6005 15.3872C19.2392 15.6139 19.0405 16.0125 19.0938 16.4405V20.8139C19.1472 21.3872 19.6258 21.8139 20.2005 21.8139ZM8.95918 20.8139C8.90584 21.3872 8.42718 21.8139 7.85251 21.8139C7.27918 21.8139 6.79918 21.3872 6.74718 20.8139V11.6005C6.70718 11.1859 6.90584 10.7739 7.26718 10.5472C7.62584 10.3205 8.08051 10.3205 8.44051 10.5472C8.79918 10.7739 9.00051 11.1859 8.95918 11.6005V20.8139Z" fill="#2653F4"/>
</svg>
