<svg width="28" height="24" viewBox="0 0 28 24" fill="none" xmlns="http://www.w3.org/2000/svg">
<path d="M24.6666 24H3.33329C1.86053 24 0.666626 22.8061 0.666626 21.3333V2.66667C0.666626 1.19391 1.86053 0 3.33329 0H24.6666C26.1394 0 27.3333 1.19391 27.3333 2.66667V21.3333C27.3333 22.8061 26.1394 24 24.6666 24ZM3.33329 5.33333V21.3333H24.6666V5.33333H3.33329ZM17.6093 18.276L15.7253 16.392L18.7813 13.3333L15.724 10.276L17.6093 8.39067L22.552 13.3333L17.6106 18.2747L17.6093 18.276ZM10.3906 18.276L5.44796 13.3333L10.3906 8.39067L12.276 10.276L9.21863 13.3333L12.2746 16.3907L10.3906 18.2747V18.276Z" fill="#007675"/>
</svg>
