<svg width="22" height="28" viewBox="0 0 22 28" fill="none" xmlns="http://www.w3.org/2000/svg">
<path d="M10.9999 27.3334C5.21859 27.3334 0.333252 24.62 0.333252 21.408V6.59202C0.333252 3.38002 5.21859 0.666687 10.9999 0.666687C16.7812 0.666687 21.6666 3.38002 21.6666 6.59202V21.408C21.6666 24.62 16.7826 27.3334 10.9999 27.3334ZM2.99992 17.8667V21.412C3.09325 22.1494 6.07859 24.3747 10.9999 24.3747C15.9213 24.3747 18.9079 22.1427 18.9999 21.404V17.8667C16.5725 19.2739 13.8052 19.9874 10.9999 19.9294C8.19467 19.9874 5.42736 19.2739 2.99992 17.8667ZM2.99992 10.4547V14C3.09325 14.7374 6.07859 16.9627 10.9999 16.9627C15.9213 16.9627 18.9079 14.7307 18.9999 13.992V10.4547C16.5726 11.8624 13.8053 12.5764 10.9999 12.5187C8.19454 12.5764 5.4272 11.8625 2.99992 10.4547ZM10.9999 3.62935C6.07725 3.62935 3.09192 5.86135 2.99992 6.60135C3.09325 7.33335 6.08125 9.55469 10.9999 9.55469C15.9186 9.55469 18.9079 7.32269 18.9999 6.58402C18.9066 5.84935 15.9186 3.62935 10.9999 3.62935Z" fill="#007675"/>
</svg>
