<svg width="23" height="25" viewBox="0 0 23 25" fill="none" xmlns="http://www.w3.org/2000/svg">
<path d="M8.00004 17.3334H4.33664C3.40169 17.3334 2.93421 17.3334 2.56564 17.4866C2.07748 17.6895 1.68953 18.0775 1.4866 18.5656C1.33337 18.9342 1.33337 19.4017 1.33337 20.3366V20.3366C1.33337 21.4531 1.33337 22.0113 1.52686 22.4186C1.7831 22.958 2.26696 23.3547 2.84613 23.5002C3.28345 23.61 3.83085 23.5005 4.92563 23.2816L5.32043 23.2026C6.3396 22.9988 6.84919 22.8969 7.21867 22.613C7.46173 22.4262 7.65861 22.186 7.79409 21.911C8.00004 21.4931 8.00004 20.9734 8.00004 19.934V7.27926C8.00004 5.7095 8.00004 4.92463 8.45336 4.37167C8.90667 3.81871 9.67631 3.66479 11.2156 3.35693L16.5489 2.29027C18.7625 1.84754 19.8693 1.62618 20.6014 2.2263C21.3334 2.82641 21.3334 3.95514 21.3334 6.21259V8.00004M21.3334 14.6667V17.2674C21.3334 18.3067 21.3334 18.8264 21.1274 19.2444C20.9919 19.5194 20.7951 19.7595 20.552 19.9463C20.1825 20.2302 19.6729 20.3321 18.6538 20.536L18.259 20.6149C17.1642 20.8339 16.6168 20.9434 16.1795 20.8335C15.6003 20.688 15.1164 20.2914 14.8602 19.752C14.6667 19.3447 14.6667 18.7864 14.6667 17.67V17.67C14.6667 16.735 14.6667 16.2675 14.8199 15.899C15.0229 15.4108 15.4108 15.0229 15.899 14.8199C16.2675 14.6667 16.735 14.6667 17.67 14.6667H21.3334ZM21.3334 14.6667V8.00004M21.3334 8.00004L8.00004 10.6667" stroke="#007675" stroke-width="2"/>
</svg>
