<svg width="24" height="22" viewBox="0 0 24 22" fill="none" xmlns="http://www.w3.org/2000/svg">
<path fill-rule="evenodd" clip-rule="evenodd" d="M2.47214 5.66665C1.10681 5.66665 0 6.77346 0 8.13878V15.6666C0 18.4951 0 19.9093 0.87868 20.788C1.75736 21.6666 3.17157 21.6666 6 21.6666H18C20.8284 21.6666 22.2426 21.6666 23.1213 20.788C24 19.9093 24 18.4951 24 15.6666V8.13878C24 6.77346 22.8932 5.66665 21.5279 5.66665C20.5915 5.66665 19.7355 5.1376 19.3167 4.30008L18.2222 2.11109L18.2222 2.11107C17.8968 1.46033 17.7342 1.13496 17.4904 0.898282C17.2819 0.695961 17.032 0.541464 16.7578 0.445534C16.4371 0.333313 16.0733 0.333313 15.3457 0.333313H8.65428C7.92672 0.333313 7.56294 0.333313 7.24221 0.445534C6.96804 0.541464 6.71806 0.695961 6.50965 0.898282C6.26584 1.13496 6.10315 1.46034 5.77778 2.11109L5.77778 2.11109L4.68328 4.30008C4.26452 5.1376 3.40851 5.66665 2.47214 5.66665ZM15.3333 12.3333C15.3333 14.1743 13.841 15.6666 12 15.6666C10.1591 15.6666 8.66667 14.1743 8.66667 12.3333C8.66667 10.4924 10.1591 8.99998 12 8.99998C13.841 8.99998 15.3333 10.4924 15.3333 12.3333ZM17.3333 12.3333C17.3333 15.2788 14.9455 17.6666 12 17.6666C9.05448 17.6666 6.66667 15.2788 6.66667 12.3333C6.66667 9.38779 9.05448 6.99998 12 6.99998C14.9455 6.99998 17.3333 9.38779 17.3333 12.3333Z" fill="#007675"/>
</svg>
