<svg width="28" height="28" viewBox="0 0 28 28" fill="none" xmlns="http://www.w3.org/2000/svg">
<path fill-rule="evenodd" clip-rule="evenodd" d="M14 27.3335C6.63999 27.3335 0.666656 21.3735 0.666656 14.0001C0.666656 6.64014 6.63999 0.666809 14 0.666809C21.3733 0.666809 27.3333 6.64014 27.3333 14.0001C27.3333 21.3735 21.3733 27.3335 14 27.3335ZM18.2533 18.9468C18.4133 19.0401 18.5867 19.0935 18.7733 19.0935C19.1067 19.0935 19.44 18.9201 19.6267 18.6001C19.9067 18.1335 19.76 17.5201 19.28 17.2268L14.5333 14.4001V8.24014C14.5333 7.68014 14.08 7.24014 13.5333 7.24014C12.9867 7.24014 12.5333 7.68014 12.5333 8.24014V14.9735C12.5333 15.3201 12.72 15.6401 13.0267 15.8268L18.2533 18.9468Z" fill="#FF3358"/>
</svg>
