<svg width="28" height="20" viewBox="0 0 28 20" fill="none" xmlns="http://www.w3.org/2000/svg">
<path fill-rule="evenodd" clip-rule="evenodd" d="M6.15073 0H13.8735C17.1028 0 19.3575 2.22538 19.3575 5.41455V14.5854C19.3575 17.7746 17.1028 20 13.8735 20H6.15073C2.92136 20 0.666672 17.7746 0.666672 14.5854V5.41455C0.666672 2.22538 2.92136 0 6.15073 0ZM24.6106 3.17198C25.196 2.87418 25.8827 2.90531 26.4413 3.25726C27 3.60785 27.3333 4.21699 27.3333 4.88298V15.1178C27.3333 15.7852 27 16.393 26.4413 16.7436C26.136 16.9344 25.7947 17.0319 25.4507 17.0319C25.164 17.0319 24.8773 16.9642 24.6093 16.8275L22.6346 15.8312C21.904 15.4603 21.4506 14.7158 21.4506 13.8887V6.11073C21.4506 5.2823 21.904 4.5378 22.6346 4.16961L24.6106 3.17198Z" fill="#FF9900"/>
</svg>
